<?xml version="1.0" encoding="iso-8859-1"?>
<!-- Generator: Adobe Illustrator 19.0.0, SVG Export Plug-In . SVG Version: 6.00 Build 0)  -->
<svg version="1.1" id="Layer_1" xmlns="http://www.w3.org/2000/svg" xmlns:xlink="http://www.w3.org/1999/xlink" x="0px" y="0px"
	 viewBox="0 0 512 512" style="enable-background:new 0 0 512 512;" xml:space="preserve">
<polygon style="fill:transparent;" points="255.999,22.23 331.956,176.135 501.8,200.814 378.899,320.613 407.912,489.77 
	255.999,409.904 104.086,489.77 133.099,320.613 10.199,200.814 180.043,176.135 "/>

	<path style="fill:#666;" d="M407.912,499.969c-1.624,0-3.253-0.387-4.745-1.171l-147.168-77.371l-147.167,77.37
		c-3.436,1.806-7.599,1.505-10.741-0.776c-3.14-2.282-4.714-6.149-4.058-9.976l28.107-163.872L3.08,208.118
		c-2.78-2.71-3.78-6.763-2.58-10.455c1.2-3.692,4.392-6.383,8.233-6.942l164.538-23.909l73.583-149.096
		c1.719-3.481,5.264-5.685,9.147-5.685s7.428,2.204,9.147,5.685l73.583,149.097l164.538,23.909c3.842,0.558,7.033,3.249,8.233,6.942
		c1.199,3.692,0.199,7.745-2.58,10.455L389.858,324.173l28.107,163.872c0.657,3.826-0.917,7.693-4.058,9.976
		C412.13,499.312,410.026,499.969,407.912,499.969z M255.999,399.705c1.631,0,3.261,0.391,4.746,1.171l133.622,70.249
		l-25.519-148.789c-0.567-3.309,0.53-6.685,2.933-9.027l108.102-105.373l-149.395-21.708c-3.322-0.482-6.193-2.569-7.679-5.579
		l-66.81-135.374l-66.81,135.373c-1.486,3.01-4.357,5.097-7.679,5.579L32.117,207.936l108.102,105.373
		c2.403,2.343,3.5,5.719,2.933,9.027l-25.519,148.789l133.622-70.249C252.739,400.096,254.369,399.705,255.999,399.705z"/>


</svg>
