<?xml version="1.0" encoding="iso-8859-1"?>
<!-- Generator: Adobe Illustrator 18.0.0, SVG Export Plug-In . SVG Version: 6.00 Build 0)  -->
<!DOCTYPE svg PUBLIC "-//W3C//DTD SVG 1.1//EN" "http://www.w3.org/Graphics/SVG/1.1/DTD/svg11.dtd">
<svg version="1.1" id="Capa_1" xmlns="http://www.w3.org/2000/svg" xmlns:xlink="http://www.w3.org/1999/xlink" x="0px" y="0px"
	 viewBox="0 0 297 297" style="enable-background:new 0 0 297 297;" xml:space="preserve">
	<path fill="orange" d="M86.312,29.03c1.57,3.809,5.249,6.111,9.127,6.111c1.253,0,2.526-0.24,3.755-0.747c5.039-2.077,7.44-7.845,5.364-12.882
		l-0.296-0.718c-2.078-5.04-7.846-7.441-12.882-5.364c-5.039,2.077-7.44,7.845-5.364,12.882L86.312,29.03z"/>
	<path fill="orange" d="M197.806,34.394c1.23,0.507,2.503,0.747,3.755,0.747c3.878,0,7.557-2.302,9.127-6.111l0.296-0.718
		c2.076-5.038-0.326-10.806-5.364-12.882c-5.036-2.076-10.806,0.326-12.882,5.364l-0.296,0.718
		C190.366,26.55,192.767,32.318,197.806,34.394z"/>
	<path fill="orange" d="M210.688,267.97c-2.077-5.04-7.846-7.44-12.882-5.364c-5.039,2.077-7.44,7.845-5.364,12.882l0.296,0.718
		c1.57,3.809,5.249,6.111,9.127,6.111c1.253,0,2.526-0.24,3.755-0.747c5.039-2.077,7.44-7.845,5.364-12.882L210.688,267.97z"/>
	<path fill="orange" d="M99.194,262.606c-5.036-2.075-10.806,0.326-12.882,5.364l-0.296,0.718c-2.076,5.038,0.326,10.806,5.364,12.882
		c1.23,0.507,2.502,0.747,3.755,0.747c3.878,0,7.557-2.302,9.127-6.111l0.296-0.718C106.634,270.45,104.233,264.682,99.194,262.606z
		"/>
	<path fill="orange" d="M287.133,138.633h-52.311c-0.54-4.752-1.458-9.39-2.735-13.88l17.554-7.228c5.039-2.075,7.442-7.842,5.367-12.881
		c-2.075-5.04-7.841-7.44-12.881-5.367l-17.581,7.239c-2.354-4.246-5.051-8.275-8.058-12.05l37.017-37.017
		c3.853-3.853,3.853-10.101,0-13.955c-3.854-3.852-10.1-3.852-13.955,0l-37.017,37.017c-3.68-2.931-7.603-5.568-11.733-7.88
		l7.312-17.551c2.096-5.03-0.282-10.807-5.313-12.902c-5.027-2.099-10.808,0.282-12.902,5.313l-7.302,17.525
		c-4.599-1.329-9.353-2.285-14.229-2.838V9.867c0-5.449-4.418-9.867-9.867-9.867c-5.449,0-9.867,4.418-9.867,9.867v52.311
		c-4.752,0.54-9.39,1.458-13.88,2.735l-7.228-17.554c-2.075-5.039-7.842-7.44-12.881-5.367c-5.039,2.075-7.442,7.842-5.367,12.881
		l7.239,17.581c-4.246,2.354-8.275,5.051-12.05,8.057L57.45,43.495c-3.854-3.852-10.1-3.852-13.955,0
		c-3.853,3.853-3.853,10.101,0,13.955l37.016,37.016c-2.931,3.68-5.569,7.604-7.88,11.734l-17.552-7.313
		c-5.027-2.098-10.808,0.282-12.902,5.313c-2.096,5.03,0.282,10.807,5.313,12.902l17.526,7.302
		c-1.329,4.598-2.285,9.353-2.838,14.228H9.867C4.418,138.633,0,143.051,0,148.5s4.418,9.867,9.867,9.867h52.311
		c0.54,4.752,1.458,9.39,2.735,13.88l-17.554,7.228c-5.039,2.075-7.442,7.842-5.367,12.881c1.569,3.81,5.249,6.113,9.128,6.113
		c1.252,0,2.524-0.24,3.753-0.746l17.581-7.239c2.354,4.246,5.051,8.276,8.057,12.05l-37.016,37.017
		c-3.853,3.853-3.853,10.101,0,13.955c1.927,1.926,4.452,2.89,6.977,2.89c2.526,0,5.05-0.964,6.977-2.89l37.017-37.017
		c3.68,2.931,7.603,5.568,11.732,7.88l-7.313,17.551c-2.096,5.03,0.282,10.807,5.313,12.902c1.24,0.517,2.526,0.762,3.791,0.762
		c3.864,0,7.533-2.286,9.112-6.075l7.302-17.526c4.599,1.329,9.354,2.285,14.229,2.839v52.311c0,5.449,4.418,9.867,9.867,9.867
		c5.449,0,9.867-4.418,9.867-9.867v-52.311c4.752-0.54,9.39-1.458,13.88-2.735l7.228,17.554c1.569,3.81,5.249,6.113,9.128,6.113
		c1.252,0,2.524-0.24,3.753-0.746c5.039-2.075,7.442-7.842,5.367-12.881l-7.239-17.581c4.246-2.354,8.275-5.051,12.05-8.057
		l37.017,37.017c1.927,1.926,4.452,2.89,6.977,2.89c2.525,0,5.05-0.964,6.977-2.89c3.853-3.853,3.853-10.101,0-13.955
		l-37.017-37.017c2.931-3.68,5.569-7.603,7.88-11.733l17.55,7.313c1.241,0.517,2.526,0.762,3.792,0.762
		c3.864,0,7.532-2.286,9.112-6.074c2.097-5.031-0.282-10.808-5.312-12.903l-17.526-7.303c1.329-4.598,2.285-9.353,2.838-14.228
		h52.311c5.449,0,9.867-4.418,9.867-9.867S292.582,138.633,287.133,138.633z M148.5,215.651c-37.028,0-67.151-30.124-67.151-67.151
		s30.124-67.151,67.151-67.151c37.028,0,67.151,30.124,67.151,67.151S185.528,215.651,148.5,215.651z"/>
	<path fill="orange" d="M21.512,192.441l-0.718,0.296c-5.039,2.077-7.44,7.845-5.364,12.882c1.57,3.809,5.249,6.111,9.127,6.111
		c1.253,0,2.526-0.24,3.755-0.747l0.718-0.296c5.039-2.077,7.44-7.845,5.364-12.882C32.318,192.766,26.548,190.364,21.512,192.441z"
		/>
	<path fill="orange" d="M20.794,104.263l0.718,0.296c1.23,0.507,2.502,0.747,3.755,0.747c3.878,0,7.557-2.302,9.127-6.111
		c2.076-5.038-0.326-10.806-5.364-12.882l-0.718-0.296c-5.036-2.076-10.806,0.325-12.882,5.364
		C13.354,96.418,15.756,102.186,20.794,104.263z"/>
	<path fill="orange" d="M271.733,105.305c1.253,0,2.525-0.24,3.755-0.747l0.718-0.296c5.039-2.077,7.44-7.845,5.364-12.882
		c-2.078-5.04-7.846-7.441-12.882-5.364l-0.718,0.296c-5.039,2.077-7.44,7.845-5.364,12.882
		C264.175,103.003,267.854,105.305,271.733,105.305z"/>
	<path fill="orange" d="M276.206,192.737l-0.718-0.296c-5.037-2.076-10.806,0.326-12.882,5.364c-2.076,5.038,0.326,10.806,5.364,12.882
		l0.718,0.296c1.23,0.507,2.503,0.747,3.755,0.747c3.878,0,7.557-2.302,9.127-6.111
		C283.646,200.582,281.244,194.814,276.206,192.737z"/>
</svg>
